<svg width="81" height="18" viewBox="0 0 81 18" fill="none" xmlns="http://www.w3.org/2000/svg">
<path d="M11.6449 13.5039H9.37489L8.12989 9.59393H3.80589L2.62089 13.5039H0.410889L4.69489 0.195929H7.34089L11.6459 13.5039H11.6449ZM7.75489 7.95393L6.62989 4.47993C6.50989 4.12493 6.28789 3.28993 5.95989 1.97293H5.91989C5.78789 2.53893 5.57689 3.37493 5.28689 4.47993L4.18189 7.95493H7.75489V7.95393ZM22.6619 8.58793C22.6619 10.2199 22.2219 11.5099 21.3389 12.4579C20.5489 13.2999 19.5669 13.7209 18.3959 13.7209C17.1319 13.7209 16.2239 13.2679 15.6709 12.3609H15.6309V17.4149H13.4999V7.06693C13.4999 6.04093 13.4729 4.98693 13.4199 3.90693H15.2959L15.4159 5.42893H15.4559C16.1659 4.28193 17.2459 3.70893 18.6929 3.70893C19.8249 3.70893 20.7699 4.15693 21.5259 5.05193C22.2839 5.94793 22.6619 7.12593 22.6619 8.58693V8.58793ZM20.4899 8.66593C20.4899 7.73193 20.2799 6.96193 19.8579 6.35593C19.3979 5.72393 18.7779 5.40793 18.0019 5.40793C17.4759 5.40793 16.9979 5.58393 16.5719 5.93093C16.1419 6.28093 15.8619 6.73893 15.7319 7.30493C15.6659 7.56893 15.6319 7.78493 15.6319 7.95493V9.55493C15.6319 10.2529 15.8469 10.8419 16.2749 11.3229C16.7029 11.8039 17.2589 12.0429 17.9429 12.0429C18.7459 12.0429 19.3709 11.7329 19.8179 11.1159C20.2659 10.4959 20.4899 9.68093 20.4899 8.66593ZM33.6999 8.58793C33.6999 10.2199 33.2579 11.5099 32.3749 12.4579C31.5849 13.2999 30.6049 13.7209 29.4349 13.7209C28.1699 13.7209 27.2619 13.2679 26.7099 12.3609H26.6699V17.4149H24.5379V7.06693C24.5379 6.04093 24.5109 4.98693 24.4579 3.90693H26.3339L26.4539 5.42893H26.4939C27.2039 4.28193 28.2819 3.70893 29.7309 3.70893C30.8629 3.70893 31.8079 4.15693 32.5659 5.05193C33.3209 5.94793 33.6999 7.12593 33.6999 8.58693V8.58793ZM31.5269 8.66593C31.5269 7.73193 31.3169 6.96193 30.8939 6.35593C30.4339 5.72393 29.8159 5.40793 29.0389 5.40793C28.5109 5.40793 28.0339 5.58393 27.6059 5.93093C27.1779 6.28093 26.8989 6.73893 26.7679 7.30493C26.7019 7.56893 26.6679 7.78493 26.6679 7.95493V9.55493C26.6679 10.2529 26.8819 10.8419 27.3079 11.3229C27.7359 11.8029 28.2919 12.0429 28.9779 12.0429C29.7809 12.0429 30.4059 11.7329 30.8529 11.1159C31.3009 10.4959 31.5249 9.68093 31.5249 8.66593H31.5269ZM46.0399 9.77193C46.0399 10.9039 45.6459 11.8249 44.8569 12.5359C43.9899 13.3129 42.7829 13.7009 41.2319 13.7009C39.7999 13.7009 38.6519 13.4259 37.7819 12.8729L38.2769 11.0959C39.2129 11.6619 40.2399 11.9459 41.3589 11.9459C42.1609 11.9459 42.7859 11.7639 43.2349 11.4019C43.6819 11.0419 43.9049 10.5549 43.9049 9.94893C43.9049 9.40893 43.7209 8.95393 43.3519 8.58493C42.9849 8.21493 42.3719 7.87293 41.5159 7.55493C39.1859 6.68693 38.0219 5.41493 38.0219 3.73993C38.0219 2.64593 38.4299 1.74993 39.2469 1.04993C40.0609 0.351929 41.1469 0.00292969 42.5049 0.00292969C43.7149 0.00292969 44.7219 0.214929 45.5249 0.635929L44.9919 2.37393C44.2419 1.96693 43.3939 1.76393 42.4449 1.76393C41.6949 1.76393 41.1089 1.94793 40.6889 2.31593C40.3339 2.64593 40.1559 3.04593 40.1559 3.52093C40.1559 4.04693 40.3589 4.48093 40.7659 4.82393C41.1219 5.13993 41.7659 5.48193 42.7029 5.85093C43.8479 6.31093 44.6889 6.85093 45.2299 7.46893C45.7699 8.08493 46.0399 8.85593 46.0399 9.77593V9.77193ZM53.0879 5.50793H50.7379V10.1679C50.7379 11.3519 51.1519 11.9439 51.9819 11.9439C52.3619 11.9439 52.6789 11.9109 52.9289 11.8439L52.9869 13.4639C52.5669 13.6209 52.0139 13.6999 51.3289 13.6999C50.4869 13.6999 49.8289 13.4429 49.3539 12.9299C48.8809 12.4159 48.6439 11.5539 48.6439 10.3429V5.50593H47.2439V3.90593H48.6439V2.14993L50.7369 1.51693V3.90693H53.0869V5.50693L53.0879 5.50793ZM63.6899 8.62693C63.6899 10.1019 63.2699 11.3129 62.4269 12.2599C61.5439 13.2349 60.3719 13.7199 58.9109 13.7199C57.5039 13.7199 56.3829 13.2539 55.5469 12.3199C54.7109 11.3859 54.2929 10.2069 54.2929 8.78593C54.2929 7.29893 54.7229 6.08093 55.5859 5.13393C56.4459 4.18593 57.6089 3.71193 59.0699 3.71193C60.4769 3.71193 61.6099 4.17893 62.4649 5.11393C63.2829 6.02093 63.6909 7.19193 63.6909 8.62693H63.6899ZM61.4799 8.69693C61.4799 7.81093 61.2899 7.05193 60.9069 6.41893C60.4599 5.65193 59.8209 5.26893 58.9929 5.26893C58.1359 5.26893 57.4849 5.65293 57.0379 6.41893C56.6549 7.05193 56.4659 7.82293 56.4659 8.73493C56.4659 9.61993 56.6559 10.3789 57.0379 11.0109C57.4979 11.7769 58.1429 12.1589 58.9739 12.1589C59.7879 12.1589 60.4269 11.7689 60.8879 10.9909C61.2809 10.3459 61.4779 9.57893 61.4779 8.69493L61.4799 8.69693ZM70.6199 5.78293C70.4099 5.74293 70.1849 5.72293 69.9499 5.72293C69.1999 5.72293 68.6199 6.00693 68.2099 6.57293C67.8559 7.07293 67.6779 7.70593 67.6779 8.46893V13.5029H65.5479L65.5679 6.92893C65.5679 5.82293 65.5399 4.81593 65.4879 3.90893H67.3439L67.4219 5.74393H67.4819C67.7059 5.11393 68.0619 4.60393 68.5469 4.22393C69.0219 3.88093 69.5349 3.70993 70.0869 3.70993C70.2849 3.70993 70.4629 3.72493 70.6209 3.74993V5.78293H70.6199ZM80.1559 8.25193C80.1559 8.63393 80.1309 8.95593 80.0779 9.21893H73.6819C73.7069 10.1659 74.0159 10.8909 74.6099 11.3909C75.1499 11.8379 75.8459 12.0609 76.7019 12.0609C77.6489 12.0609 78.5119 11.9109 79.2899 11.6079L79.6239 13.0879C78.7159 13.4829 77.6439 13.6799 76.4069 13.6799C74.9189 13.6799 73.7509 13.2419 72.9009 12.3669C72.0539 11.4909 71.6289 10.3169 71.6289 8.84193C71.6289 7.39493 72.0239 6.18993 72.8149 5.22893C73.6429 4.20293 74.7619 3.68893 76.1699 3.68893C77.5519 3.68893 78.5999 4.20293 79.3099 5.22893C79.8729 6.04393 80.1559 7.05193 80.1559 8.24893V8.25193ZM78.1229 7.69893C78.1369 7.06593 77.9979 6.51893 77.7089 6.05893C77.3389 5.46593 76.7719 5.16893 76.0089 5.16893C75.3119 5.16893 74.7449 5.45893 74.3119 6.03893C73.9569 6.49893 73.7459 7.05293 73.6819 7.69693H78.1219L78.1229 7.69893Z" fill="white"/>
</svg>
