<svg width="22" height="26" viewBox="0 0 22 26" fill="none" xmlns="http://www.w3.org/2000/svg">
<path d="M18.1281 13.7838C18.0981 10.5608 20.7681 8.99382 20.8881 8.91982C19.3781 6.71682 17.0361 6.41582 16.2131 6.39182C14.2461 6.18482 12.3381 7.56882 11.3361 7.56882C10.3141 7.56882 8.77109 6.41082 7.10809 6.44482C4.96809 6.47782 2.96609 7.71682 1.86809 9.64082C-0.397912 13.5638 1.29209 19.3288 3.46309 22.5008C4.54909 24.0528 5.81809 25.7868 7.47909 25.7258C9.10309 25.6588 9.70909 24.6898 11.6711 24.6898C13.6141 24.6898 14.1841 25.7268 15.8781 25.6878C17.6211 25.6598 18.7181 24.1278 19.7681 22.5608C21.0221 20.7808 21.5261 19.0288 21.5461 18.9388C21.5061 18.9248 18.1591 17.6488 18.1261 13.7848L18.1281 13.7838ZM14.9281 4.30582C15.8021 3.21282 16.4001 1.72582 16.2341 0.21582C14.9691 0.27282 13.3871 1.09182 12.4761 2.16082C11.6701 3.10382 10.9501 4.64782 11.1361 6.10082C12.5561 6.20582 14.0161 5.38282 14.9281 4.30682V4.30582Z" fill="white"/>
</svg>
