<svg width="79" height="8" viewBox="0 0 79 8" fill="none" xmlns="http://www.w3.org/2000/svg">
<path d="M6.05005 4.01015C6.05005 5.18615 5.69705 6.07215 4.99205 6.66715C4.33905 7.21715 3.41205 7.49115 2.20905 7.49115C1.61205 7.49115 1.10205 7.46615 0.675049 7.41415V0.984152C1.23205 0.894152 1.83205 0.847152 2.48005 0.847152C3.62605 0.847152 4.49005 1.09715 5.07005 1.59415C5.72305 2.15715 6.05005 2.96215 6.05005 4.01015ZM4.94505 4.03815C4.94505 3.27515 4.74305 2.69015 4.33905 2.28215C3.93405 1.87515 3.34405 1.67215 2.56705 1.67215C2.23705 1.67215 1.95705 1.69215 1.72305 1.73915V6.62715C1.85305 6.64715 2.08805 6.65715 2.43105 6.65715C3.23305 6.65715 3.85105 6.43315 4.28805 5.98715C4.72505 5.54115 4.94305 4.89115 4.94305 4.03715L4.94505 4.03815ZM11.91 5.03715C11.91 5.76215 11.702 6.35715 11.288 6.82215C10.854 7.30215 10.2781 7.54015 9.56105 7.54015C8.87105 7.54015 8.31905 7.31015 7.90805 6.85015C7.49805 6.39215 7.29305 5.81315 7.29305 5.11515C7.29305 4.38515 7.50305 3.78515 7.92805 3.32115C8.35305 2.85715 8.92205 2.62415 9.64005 2.62415C10.33 2.62415 10.887 2.85415 11.308 3.31215C11.708 3.75915 11.9081 4.33515 11.9081 5.03915L11.91 5.03715ZM10.822 5.07115C10.822 4.63715 10.728 4.26415 10.542 3.95315C10.322 3.57715 10.0081 3.38915 9.60205 3.38915C9.18005 3.38915 8.86005 3.57715 8.64005 3.95315C8.45205 4.26315 8.36005 4.64315 8.36005 5.09115C8.36005 5.52615 8.45305 5.89915 8.64005 6.21115C8.86705 6.58615 9.18305 6.77415 9.59005 6.77415C9.99005 6.77415 10.305 6.58415 10.53 6.20015C10.725 5.88215 10.822 5.50615 10.822 5.07015V5.07115ZM19.765 2.72015L18.2901 7.43315H17.3301L16.7201 5.38615C16.5641 4.87615 16.438 4.36615 16.34 3.86315H16.32C16.23 4.38115 16.1041 4.88815 15.9421 5.38615L15.292 7.43315H14.322L12.9351 2.72015H14.0121L14.545 4.96015C14.675 5.49015 14.7801 5.99515 14.8651 6.47315H14.885C14.962 6.07915 15.091 5.57715 15.273 4.97015L15.9431 2.72015H16.7961L17.4361 4.92215C17.5921 5.45915 17.7181 5.97615 17.8161 6.47415H17.8441C17.9141 5.98915 18.0221 5.47215 18.1641 4.92215L18.736 2.72015H19.766H19.765ZM25.198 7.43315H24.1501V4.73315C24.1501 3.90115 23.834 3.48515 23.2 3.48515C22.89 3.48515 22.6381 3.59915 22.4431 3.82815C22.25 4.05815 22.153 4.32815 22.153 4.63615V7.43215H21.103V4.06615C21.103 3.65215 21.0911 3.20315 21.0661 2.71615H21.986L22.0361 3.45415H22.0661C22.1861 3.22415 22.3691 3.03615 22.6081 2.88415C22.8921 2.70915 23.21 2.62015 23.558 2.62015C23.998 2.62015 24.364 2.76215 24.655 3.04715C25.017 3.39715 25.198 3.91715 25.198 4.60915V7.43215V7.43315ZM28.088 7.43315H27.0401V0.556152H28.088V7.43315ZM34.2581 5.03715C34.2581 5.76215 34.051 6.35715 33.6381 6.82215C33.203 7.30215 32.6281 7.54015 31.9101 7.54015C31.2171 7.54015 30.666 7.31015 30.256 6.85015C29.846 6.39215 29.641 5.81315 29.641 5.11515C29.641 4.38515 29.8531 3.78515 30.2771 3.32115C30.701 2.85715 31.271 2.62415 31.987 2.62415C32.681 2.62415 33.237 2.85415 33.657 3.31215C34.057 3.75915 34.2591 4.33515 34.2591 5.03915L34.2581 5.03715ZM33.17 5.07115C33.17 4.63715 33.076 4.26415 32.89 3.95315C32.67 3.57715 32.356 3.38915 31.95 3.38915C31.528 3.38915 31.208 3.57715 30.99 3.95315C30.8 4.26315 30.708 4.64315 30.708 5.09115C30.708 5.52615 30.802 5.89915 30.988 6.21115C31.216 6.58615 31.5321 6.77415 31.9401 6.77415C32.3401 6.77415 32.653 6.58415 32.88 6.20015C33.074 5.88215 33.17 5.50615 33.17 5.07015V5.07115ZM39.3301 7.43315H38.39L38.31 6.89015H38.282C37.96 7.32315 37.502 7.54015 36.905 7.54015C36.46 7.54015 36.1001 7.39715 35.8291 7.11315C35.5821 6.85515 35.459 6.53315 35.459 6.15315C35.459 5.57715 35.699 5.13815 36.182 4.83315C36.664 4.53015 37.342 4.38115 38.215 4.38815V4.30015C38.215 3.68015 37.889 3.37015 37.2351 3.37015C36.771 3.37015 36.3611 3.48615 36.0071 3.71815L35.794 3.03015C36.232 2.76015 36.7741 2.62315 37.4111 2.62315C38.6431 2.62315 39.2611 3.27315 39.2611 4.57315V6.30915C39.2611 6.77915 39.2841 7.15415 39.3291 7.43215L39.3301 7.43315ZM38.242 5.81315V5.08615C37.086 5.06615 36.5081 5.38315 36.5081 6.03615C36.5081 6.28215 36.5741 6.46615 36.708 6.58915C36.8441 6.71115 37.016 6.77215 37.2211 6.77215C37.451 6.77215 37.667 6.69915 37.863 6.55415C38.06 6.40815 38.181 6.22415 38.226 5.99615C38.236 5.94615 38.243 5.88315 38.243 5.81215L38.242 5.81315ZM45.2851 7.43315H44.3551L44.305 6.67615H44.2771C43.98 7.25215 43.474 7.54015 42.7631 7.54015C42.195 7.54015 41.723 7.31715 41.347 6.87015C40.9711 6.42315 40.7851 5.84615 40.7851 5.13515C40.7851 4.37215 40.988 3.75515 41.395 3.28215C41.791 2.84215 42.275 2.62215 42.851 2.62215C43.485 2.62215 43.9281 2.83515 44.181 3.26215H44.201V0.556152H45.2491V6.16315C45.2491 6.62315 45.2611 7.04515 45.2861 7.43315H45.2851ZM44.2 5.44515V4.65915C44.2 4.52215 44.19 4.41215 44.17 4.32915C44.11 4.07615 43.9841 3.86415 43.7901 3.69315C43.5961 3.52315 43.36 3.43615 43.09 3.43615C42.7 3.43615 42.393 3.59115 42.168 3.90215C41.945 4.21215 41.8321 4.61015 41.8321 5.09515C41.8321 5.56115 41.939 5.93915 42.154 6.23015C42.3811 6.54015 42.687 6.69615 43.07 6.69615C43.4141 6.69615 43.6901 6.56615 43.8981 6.30815C44.1001 6.06815 44.198 5.78115 44.198 5.44515H44.2ZM54.2481 5.03715C54.2481 5.76215 54.041 6.35715 53.628 6.82215C53.193 7.30215 52.618 7.54015 51.9001 7.54015C51.2101 7.54015 50.6581 7.31015 50.2461 6.85015C49.8361 6.39215 49.631 5.81315 49.631 5.11515C49.631 4.38515 49.843 3.78515 50.267 3.32115C50.691 2.85715 51.2611 2.62415 51.9801 2.62415C52.6701 2.62415 53.2271 2.85415 53.6471 3.31215C54.0471 3.75915 54.2471 4.33515 54.2471 5.03915L54.2481 5.03715ZM53.1621 5.07115C53.1621 4.63715 53.0681 4.26415 52.8821 3.95315C52.6601 3.57715 52.3481 3.38915 51.9401 3.38915C51.5201 3.38915 51.2001 3.57715 50.9801 3.95315C50.7901 4.26315 50.698 4.64315 50.698 5.09115C50.698 5.52615 50.792 5.89915 50.978 6.21115C51.206 6.58615 51.522 6.77415 51.93 6.77415C52.3301 6.77415 52.6451 6.58415 52.8701 6.20015C53.0641 5.88215 53.1621 5.50615 53.1621 5.07015V5.07115ZM59.8831 7.43315H58.836V4.73315C58.836 3.90115 58.5201 3.48515 57.8861 3.48515C57.5741 3.48515 57.323 3.59915 57.129 3.82815C56.935 4.05715 56.837 4.32815 56.837 4.63615V7.43215H55.7871V4.06615C55.7871 3.65215 55.7771 3.20315 55.751 2.71615H56.671L56.7211 3.45415H56.7491C56.8721 3.22415 57.0541 3.03615 57.292 2.88415C57.577 2.70915 57.894 2.62015 58.242 2.62015C58.682 2.62015 59.048 2.76215 59.339 3.04715C59.702 3.39715 59.8821 3.91715 59.8821 4.60915V7.43215L59.8831 7.43315ZM66.9361 3.50415H65.782V5.79415C65.782 6.37615 65.987 6.66715 66.392 6.66715C66.582 6.66715 66.737 6.65115 66.86 6.61715L66.8871 7.41315C66.6801 7.49115 66.407 7.53015 66.073 7.53015C65.659 7.53015 65.337 7.40415 65.103 7.15215C64.87 6.90015 64.7531 6.47615 64.7531 5.88215V3.50315H64.0651V2.72015H64.7551V1.85515L65.7811 1.54515V2.71815H66.9361V3.50415ZM72.4841 7.43315H71.4341V4.75315C71.4341 3.90815 71.1191 3.48515 70.4861 3.48515C70.0001 3.48515 69.6681 3.73015 69.4861 4.22015C69.4561 4.32315 69.4361 4.45015 69.4361 4.59715V7.43215H68.39V0.556152H69.437V3.39615H69.457C69.787 2.88015 70.26 2.62215 70.873 2.62215C71.307 2.62215 71.666 2.76415 71.951 3.04915C72.3071 3.40315 72.485 3.93115 72.485 4.62915V7.43215L72.4841 7.43315ZM78.207 4.85315C78.207 5.04115 78.1931 5.19915 78.1671 5.32815H75.0251C75.0391 5.79415 75.1891 6.14815 75.4801 6.39515C75.7461 6.61515 76.0901 6.72515 76.5101 6.72515C76.9741 6.72515 77.398 6.65115 77.78 6.50215L77.944 7.23015C77.497 7.42415 76.971 7.52015 76.362 7.52015C75.632 7.52015 75.057 7.30615 74.642 6.87615C74.222 6.44615 74.0161 5.86915 74.0161 5.14615C74.0161 4.43415 74.2091 3.84215 74.5981 3.37015C75.0041 2.86615 75.553 2.61415 76.246 2.61415C76.924 2.61415 77.4391 2.86615 77.7861 3.37015C78.0681 3.77015 78.2061 4.26515 78.2061 4.85315H78.207ZM77.207 4.58315C77.215 4.27115 77.147 4.00315 77.004 3.77715C76.822 3.48715 76.544 3.34015 76.17 3.34015C75.828 3.34015 75.55 3.48215 75.336 3.76715C75.162 3.99415 75.059 4.26515 75.026 4.58215H77.2061L77.207 4.58315Z" fill="white"/>
</svg>
