<svg width="86" height="28" viewBox="0 0 86 28" fill="none" xmlns="http://www.w3.org/2000/svg">
<path d="M6.53462 4.05619C6.53462 4.88345 6.28402 5.546 5.79034 6.04012C5.22274 6.62589 4.48347 6.91939 3.57756 6.91939C2.713 6.91939 1.97373 6.62218 1.36603 6.03021C0.757077 5.42958 0.453857 4.69273 0.453857 3.81346C0.453857 2.93418 0.757078 2.19733 1.36478 1.60289C1.96997 1.00845 2.70924 0.70752 3.57505 0.70752C4.00608 0.70752 4.41706 0.794208 4.80925 0.958917C5.19768 1.12363 5.51719 1.34654 5.74899 1.62147L5.22274 2.14408C4.82178 1.67348 4.27422 1.44314 3.5738 1.44314C2.94229 1.44314 2.39599 1.6611 1.92988 2.09949C1.47003 2.54161 1.24073 3.11252 1.24073 3.81346C1.24073 4.5144 1.47003 5.08902 1.92988 5.53113C2.39348 5.96458 2.94229 6.18749 3.5738 6.18749C4.24415 6.18749 4.808 5.96458 5.25281 5.52618C5.54601 5.23515 5.71266 4.83267 5.75651 4.32121H3.5738V3.6054H6.48575C6.52084 3.76021 6.53086 3.91005 6.53086 4.05495L6.53462 4.05619Z" fill="white"/>
<path d="M11.153 1.57291H8.42153V3.4553H10.8874V4.17358H8.42153V6.05596H11.1568V6.78415H7.64844V0.844727H11.1568V1.57539L11.153 1.57291Z" fill="white"/>
<path d="M14.4145 6.78415H13.6402V1.57291H11.9612V0.844727H16.0935V1.57539H14.4145V6.78415Z" fill="white"/>
<path d="M19.0845 6.78415V0.844727H19.8563V6.78415H19.0833H19.0845Z" fill="white"/>
<path d="M22.5153 6.78415V1.57291H20.8313V0.844727H24.9662V1.57539H23.2834V6.78415H22.5153Z" fill="white"/>
<path d="M32.7886 6.01903C32.1959 6.6209 31.4604 6.9206 30.5858 6.9206C29.7037 6.9206 28.9695 6.6209 28.3768 6.02027C27.7854 5.42212 27.491 4.6865 27.491 3.8159C27.491 2.94529 27.7854 2.20968 28.3768 1.61152C28.9695 1.00966 29.705 0.709961 30.5846 0.709961C31.4542 0.709961 32.1884 1.00966 32.7811 1.614C33.3775 2.22082 33.6707 2.95149 33.6707 3.8159C33.6707 4.6865 33.3775 5.42212 32.7861 6.02027L32.7886 6.01903ZM28.9507 5.52367C29.3968 5.96702 29.9406 6.18993 30.5858 6.18993C31.2249 6.18993 31.7737 5.96702 32.2147 5.52119C32.6596 5.07784 32.8851 4.50569 32.8851 3.81466C32.8851 3.12115 32.6596 2.55148 32.2147 2.10565C31.7737 1.6623 31.2249 1.43939 30.5858 1.43939C29.9381 1.43939 29.3955 1.6623 28.9494 2.10813C28.5046 2.55148 28.2791 3.12363 28.2791 3.81466C28.2791 4.50817 28.5046 5.07784 28.9482 5.52367H28.9507Z" fill="white"/>
<path d="M34.7595 6.78415V0.844727H35.6993L38.6225 5.464H38.6563L38.6225 4.32219V0.844727H39.3956V6.78415H38.5887L35.5289 1.93701H35.495L35.5289 3.08378V6.78415H34.7595Z" fill="white"/>
<path d="M27.3014 15.4584C24.9474 15.4584 23.0244 17.2284 23.0244 19.6724C23.0244 22.0954 24.9464 23.8844 27.3004 23.8844C29.6604 23.8844 31.5834 22.0944 31.5834 19.6714C31.5834 17.2274 29.6594 15.4564 27.2994 15.4564L27.3014 15.4584ZM27.3014 22.2264C26.0114 22.2264 24.8984 21.1724 24.8984 19.6724C24.8984 18.1524 26.0104 17.1164 27.3014 17.1164C28.5934 17.1164 29.7114 18.1514 29.7114 19.6714C29.7114 21.1714 28.5934 22.2244 27.3014 22.2244V22.2264ZM17.9684 15.4584C15.6084 15.4584 13.6904 17.2284 13.6904 19.6724C13.6904 22.0954 15.6084 23.8844 17.9684 23.8844C20.3264 23.8844 22.2464 22.0944 22.2464 19.6714C22.2464 17.2274 20.3264 15.4564 17.9694 15.4564L17.9684 15.4584ZM17.9684 22.2264C16.6754 22.2264 15.5604 21.1724 15.5604 19.6724C15.5604 18.1524 16.6754 17.1164 17.9684 17.1164C19.2604 17.1164 20.3714 18.1514 20.3714 19.6714C20.3714 21.1714 19.2614 22.2244 17.9684 22.2244V22.2264ZM6.8614 16.7494V18.5394H11.1884C11.0614 19.5414 10.7234 20.2764 10.2044 20.7894C9.57241 21.4094 8.5884 22.0964 6.8604 22.0964C4.19841 22.0964 2.11341 19.9724 2.11341 17.3404C2.11341 14.7084 4.19741 12.5844 6.85941 12.5844C8.29941 12.5844 9.34741 13.1424 10.1194 13.8624L11.3964 12.6004C10.3164 11.5804 8.87641 10.7964 6.85941 10.7964C3.20941 10.7964 0.139404 13.7324 0.139404 17.3414C0.139404 20.9514 3.20941 23.8864 6.85941 23.8864C8.83341 23.8864 10.3154 23.2464 11.4794 22.0484C12.6744 20.8684 13.0474 19.2084 13.0474 17.8684C13.0474 17.4524 13.0124 17.0704 12.9494 16.7504H6.85941L6.8614 16.7494ZM52.2774 18.1394C51.9254 17.1954 50.8394 15.4594 48.6274 15.4594C46.4334 15.4594 44.6074 17.1654 44.6074 19.6724C44.6074 22.0324 46.4144 23.8844 48.8374 23.8844C50.7954 23.8844 51.9254 22.7044 52.3904 22.0164L50.9374 21.0594C50.4524 21.7594 49.7914 22.2254 48.8374 22.2254C47.8874 22.2254 47.2074 21.7954 46.7724 20.9484L52.4744 18.6164L52.2764 18.1364L52.2774 18.1394ZM46.4634 19.5414C46.4134 17.9164 47.7404 17.0844 48.6904 17.0844C49.4344 17.0844 50.0664 17.4524 50.2764 17.9794L46.4644 19.5424L46.4634 19.5414ZM41.8294 23.6294H43.7034V11.2454H41.8294V23.6294ZM38.7594 16.3964H38.6964C38.2764 15.9034 37.4734 15.4584 36.4564 15.4584C34.3204 15.4584 32.3684 17.3104 32.3684 19.6864C32.3684 22.0464 34.3204 23.8864 36.4554 23.8864C37.4724 23.8864 38.2754 23.4364 38.6954 22.9284H38.7594V23.5324C38.7594 25.1424 37.8894 26.0084 36.4834 26.0084C35.3384 26.0084 34.6284 25.1914 34.3334 24.5034L32.7034 25.1774C33.1734 26.2944 34.4184 27.6674 36.4834 27.6674C38.6814 27.6674 40.5354 26.3904 40.5354 23.2814V15.7134H38.7594V16.3964ZM36.6154 22.2264C35.3234 22.2264 34.2424 21.1564 34.2424 19.6864C34.2424 18.2014 35.3224 17.1164 36.6154 17.1164C37.8884 17.1164 38.8924 18.2014 38.8924 19.6864C38.8924 21.1564 37.8884 22.2264 36.6154 22.2264ZM61.0534 11.2464H56.5704V23.6294H58.4404V18.9364H61.0534C63.1294 18.9364 65.1654 17.4514 65.1654 15.0904C65.1654 12.7304 63.1254 11.2464 61.0534 11.2464ZM61.1034 17.2144H58.4394V12.9684H61.1024C62.4984 12.9684 63.2954 14.1144 63.2954 15.0914C63.2954 16.0494 62.4984 17.2154 61.1024 17.2154L61.1034 17.2144ZM72.6584 15.4344C71.3084 15.4344 69.9034 16.0244 69.3254 17.3314L70.9854 18.0184C71.3414 17.3314 71.9984 17.1084 72.6924 17.1084C73.6624 17.1084 74.6464 17.6844 74.6624 18.7014V18.8314C74.3224 18.6384 73.5984 18.3514 72.7074 18.3514C70.9204 18.3514 69.1004 19.3244 69.1004 21.1384C69.1004 22.7984 70.5634 23.8664 72.2104 23.8664C73.4674 23.8664 74.1604 23.3064 74.5974 22.6534H74.6614V23.6094H76.4664V18.8594C76.4664 16.6634 74.8074 15.4344 72.6584 15.4344ZM72.4334 22.2224C71.8214 22.2224 70.9694 21.9224 70.9694 21.1724C70.9694 20.2144 72.0324 19.8464 72.9524 19.8464C73.7754 19.8464 74.1624 20.0264 74.6624 20.2624C74.5144 21.4094 73.5164 22.2224 72.4334 22.2224ZM83.0434 15.7064L80.8964 21.0764H80.8334L78.6114 15.7064H76.5954L79.9324 23.2094L78.0274 27.3834H79.9814L85.1244 15.7054H83.0444L83.0434 15.7064ZM66.1934 23.6304H68.0674V11.2454H66.1934V23.6304Z" fill="white"/>
</svg>
